<svg width="27" height="27" viewBox="0 0 27 27" fill="none" xmlns="http://www.w3.org/2000/svg">
<path d="M24.7813 14.0713C24.7813 13.2263 24.7055 12.4138 24.5646 11.6338H13.3413V16.2488H19.7546C19.473 17.733 18.628 18.9896 17.3605 19.8346V22.8355H21.228C23.4813 20.7555 24.7813 17.7005 24.7813 14.0713Z" fill="#4285F4"/>
<path d="M13.3415 25.7171C16.559 25.7171 19.2565 24.6554 21.2281 22.8354L17.3606 19.8346C16.299 20.5496 14.9448 20.9829 13.3415 20.9829C10.2431 20.9829 7.61063 18.8921 6.66813 16.0754H2.70312V19.1521C4.66396 23.0413 8.68312 25.7171 13.3415 25.7171Z" fill="#34A853"/>
<path d="M6.66814 16.0647C6.4298 15.3497 6.28897 14.5914 6.28897 13.8005C6.28897 13.0097 6.4298 12.2514 6.66814 11.5364V8.45972H2.70314C1.89064 10.0631 1.4248 11.8722 1.4248 13.8005C1.4248 15.7289 1.89064 17.5381 2.70314 19.1414L5.79064 16.7364L6.66814 16.0647Z" fill="#FBBC05"/>
<path d="M13.3415 6.62879C15.0965 6.62879 16.6565 7.23546 17.9023 8.40546L21.3148 4.99296C19.2456 3.06462 16.559 1.88379 13.3415 1.88379C8.68312 1.88379 4.66396 4.55962 2.70312 8.45962L6.66813 11.5363C7.61063 8.71962 10.2431 6.62879 13.3415 6.62879Z" fill="#EA4335"/>
</svg>
