<svg width="188" height="174" viewBox="0 0 188 174" fill="none" xmlns="http://www.w3.org/2000/svg">
<g filter="url(#filter0_di_373_243)">
<path d="M105.649 31.1039C110.724 22.801 121.522 20.0152 129.996 24.9046C138.471 29.7944 141.464 40.5371 136.816 49.0863L136.589 49.4925L126.954 66.1897C126.125 67.6264 127.157 69.4227 128.816 69.4293L148.07 69.5062L148.535 69.514C158.261 69.7991 166.038 77.7919 165.999 87.5775C165.96 97.3629 158.12 105.294 148.393 105.502L147.928 105.506L128.993 105.43C127.326 105.424 126.28 107.227 127.113 108.67L136.589 125.093C141.557 133.705 138.605 144.713 129.996 149.68C121.387 154.647 110.38 151.692 105.411 143.08L95.8711 126.546C95.0399 125.105 92.9605 125.105 92.1293 126.546L82.59 143.08L82.3517 143.48C77.2766 151.782 66.4786 154.57 58.0041 149.68C49.5295 144.79 46.5376 134.047 51.1857 125.497L51.4132 125.092L61.0478 108.393C61.8768 106.956 60.8441 105.16 59.1854 105.154L39.9308 105.077L39.466 105.07C29.7408 104.785 21.9635 96.7917 22.0021 87.0062C22.0416 77.0652 30.1325 69.0382 40.0734 69.0775L59.0077 69.1525C60.674 69.1591 61.7199 67.3563 60.8872 65.913L51.4132 49.4925L51.1857 49.0873C46.5375 40.5381 49.5294 29.7944 58.0041 24.9046C66.4785 20.0151 77.2765 22.8015 82.3517 31.1039L82.59 31.5033L92.1293 48.038C92.9605 49.4787 95.0399 49.4788 95.8712 48.0381L105.412 31.5033L105.649 31.1039Z" fill="url(#paint0_radial_373_243)"/>
</g>
<g filter="url(#filter1_i_373_243)">
<path d="M73.9375 84.6919L75.997 85.8817C87.774 92.6856 102.287 92.6856 114.064 85.8817V85.8817" stroke="#6664F8" stroke-width="3.6" stroke-linecap="round"/>
</g>
<g filter="url(#filter2_i_373_243)">
<path d="M91.1177 70.3721L88.605 78.7528" stroke="url(#paint1_linear_373_243)" stroke-width="3.6" stroke-linecap="round"/>
</g>
<g filter="url(#filter3_i_373_243)">
<path d="M99.9986 70.3721L97.4858 78.7528" stroke="url(#paint2_linear_373_243)" stroke-width="3.6" stroke-linecap="round"/>
</g>
<defs>
<filter id="filter0_di_373_243" x="0.401953" y="0.893652" width="187.198" height="172.797" filterUnits="userSpaceOnUse" color-interpolation-filters="sRGB">
<feFlood flood-opacity="0" result="BackgroundImageFix"/>
<feColorMatrix in="SourceAlpha" type="matrix" values="0 0 0 0 0 0 0 0 0 0 0 0 0 0 0 0 0 0 127 0" result="hardAlpha"/>
<feOffset/>
<feGaussianBlur stdDeviation="10.8"/>
<feComposite in2="hardAlpha" operator="out"/>
<feColorMatrix type="matrix" values="0 0 0 0 0.491211 0 0 0 0 0.386306 0 0 0 0 1 0 0 0 0.35 0"/>
<feBlend mode="normal" in2="BackgroundImageFix" result="effect1_dropShadow_373_243"/>
<feBlend mode="normal" in="SourceGraphic" in2="effect1_dropShadow_373_243" result="shape"/>
<feColorMatrix in="SourceAlpha" type="matrix" values="0 0 0 0 0 0 0 0 0 0 0 0 0 0 0 0 0 0 127 0" result="hardAlpha"/>
<feOffset dx="2.4" dy="3.6"/>
<feGaussianBlur stdDeviation="3.6"/>
<feComposite in2="hardAlpha" operator="arithmetic" k2="-1" k3="1"/>
<feColorMatrix type="matrix" values="0 0 0 0 1 0 0 0 0 1 0 0 0 0 1 0 0 0 1 0"/>
<feBlend mode="normal" in2="shape" result="effect2_innerShadow_373_243"/>
</filter>
<filter id="filter1_i_373_243" x="72.1372" y="82.8916" width="43.7271" height="12.7731" filterUnits="userSpaceOnUse" color-interpolation-filters="sRGB">
<feFlood flood-opacity="0" result="BackgroundImageFix"/>
<feBlend mode="normal" in="SourceGraphic" in2="BackgroundImageFix" result="shape"/>
<feColorMatrix in="SourceAlpha" type="matrix" values="0 0 0 0 0 0 0 0 0 0 0 0 0 0 0 0 0 0 127 0" result="hardAlpha"/>
<feOffset dy="2.88"/>
<feGaussianBlur stdDeviation="1.44"/>
<feComposite in2="hardAlpha" operator="arithmetic" k2="-1" k3="1"/>
<feColorMatrix type="matrix" values="0 0 0 0 0 0 0 0 0 0 0 0 0 0 0 0 0 0 0.15 0"/>
<feBlend mode="normal" in2="shape" result="effect1_innerShadow_373_243"/>
</filter>
<filter id="filter2_i_373_243" x="86.8047" y="68.5718" width="6.11328" height="14.8614" filterUnits="userSpaceOnUse" color-interpolation-filters="sRGB">
<feFlood flood-opacity="0" result="BackgroundImageFix"/>
<feBlend mode="normal" in="SourceGraphic" in2="BackgroundImageFix" result="shape"/>
<feColorMatrix in="SourceAlpha" type="matrix" values="0 0 0 0 0 0 0 0 0 0 0 0 0 0 0 0 0 0 127 0" result="hardAlpha"/>
<feOffset dy="2.88"/>
<feGaussianBlur stdDeviation="1.44"/>
<feComposite in2="hardAlpha" operator="arithmetic" k2="-1" k3="1"/>
<feColorMatrix type="matrix" values="0 0 0 0 0 0 0 0 0 0 0 0 0 0 0 0 0 0 0.15 0"/>
<feBlend mode="normal" in2="shape" result="effect1_innerShadow_373_243"/>
</filter>
<filter id="filter3_i_373_243" x="95.6855" y="68.5718" width="6.11328" height="14.8614" filterUnits="userSpaceOnUse" color-interpolation-filters="sRGB">
<feFlood flood-opacity="0" result="BackgroundImageFix"/>
<feBlend mode="normal" in="SourceGraphic" in2="BackgroundImageFix" result="shape"/>
<feColorMatrix in="SourceAlpha" type="matrix" values="0 0 0 0 0 0 0 0 0 0 0 0 0 0 0 0 0 0 127 0" result="hardAlpha"/>
<feOffset dy="2.88"/>
<feGaussianBlur stdDeviation="1.44"/>
<feComposite in2="hardAlpha" operator="arithmetic" k2="-1" k3="1"/>
<feColorMatrix type="matrix" values="0 0 0 0 0 0 0 0 0 0 0 0 0 0 0 0 0 0 0.15 0"/>
<feBlend mode="normal" in2="shape" result="effect1_innerShadow_373_243"/>
</filter>
<radialGradient id="paint0_radial_373_243" cx="0" cy="0" r="1" gradientUnits="userSpaceOnUse" gradientTransform="translate(71.4334 59.7162) rotate(58.7969) scale(95.3631 105.838)">
<stop stop-color="#7D63FF"/>
<stop offset="0.653547" stop-color="#C2B6FF"/>
<stop offset="0.995192" stop-color="#F2FFDB"/>
</radialGradient>
<linearGradient id="paint1_linear_373_243" x1="89.8613" y1="70.3721" x2="89.8613" y2="78.7528" gradientUnits="userSpaceOnUse">
<stop stop-color="#7D63FF"/>
<stop offset="1" stop-color="#5552FF"/>
</linearGradient>
<linearGradient id="paint2_linear_373_243" x1="98.7422" y1="70.3721" x2="98.7422" y2="78.7528" gradientUnits="userSpaceOnUse">
<stop stop-color="#7D63FF"/>
<stop offset="1" stop-color="#5552FF"/>
</linearGradient>
</defs>
</svg>
