<svg width="410" height="296" viewBox="0 0 410 296" fill="none" xmlns="http://www.w3.org/2000/svg">
<g filter="url(#filter0_f_265_829)">
<ellipse cx="223.791" cy="250.777" rx="155.551" ry="14.8226" fill="url(#paint0_linear_265_829)"/>
</g>
<g filter="url(#filter1_di_265_829)">
<path d="M96.0051 40.7287C110.354 32.4498 128.699 37.3744 136.981 51.7277L152.88 79.2845C154.266 81.6856 157.731 81.6856 159.117 79.2846L175.018 51.7268L175.412 51.0607C183.871 37.2227 201.868 32.5787 215.992 40.7277C230.341 49.0067 235.26 67.3548 226.979 81.7082L210.921 109.538C209.539 111.932 211.26 114.926 214.025 114.937L246.115 115.065L246.89 115.077C263.099 115.553 276.061 128.874 275.996 145.184C275.931 161.493 262.864 174.711 246.652 175.058L245.877 175.064L214.318 174.938C211.541 174.927 209.798 177.932 211.185 180.337L226.978 207.708L227.358 208.384C235.104 222.632 230.117 240.538 215.992 248.688C201.644 256.966 183.298 252.042 175.017 237.689L159.117 210.131C157.731 207.73 154.266 207.73 152.88 210.131L136.981 237.688C128.699 252.041 110.354 256.966 96.0051 248.687C81.6566 240.408 76.7385 222.061 85.0198 207.708L101.077 179.876C102.459 177.481 100.738 174.488 97.9732 174.477L65.8821 174.35L65.1077 174.337C48.8988 173.862 35.9365 160.54 36.0012 144.231C36.067 127.662 49.552 114.284 66.1204 114.35L97.677 114.474C100.454 114.485 102.197 111.481 100.809 109.075L85.0198 81.7082C76.7382 67.3549 81.6565 49.0077 96.0051 40.7287Z" fill="url(#paint1_radial_265_829)"/>
</g>
<path d="M101.537 113.677L122.484 136.951" stroke="white" stroke-width="5" stroke-linecap="round"/>
<path d="M101.759 176.948L131.638 167.583" stroke="white" stroke-width="5" stroke-linecap="round"/>
<g filter="url(#filter2_i_265_829)">
<rect x="122.923" y="113.725" width="101.471" height="117.081" rx="10" fill="#7D63FF"/>
</g>
<g filter="url(#filter3_i_265_829)">
<path d="M120.275 121.351C119.505 115.371 124.164 110.075 130.193 110.075H219.291C225.003 110.075 229.554 114.852 229.279 120.557L227.244 162.747C226.987 168.077 222.591 172.265 217.255 172.265H135.62C130.591 172.265 126.344 168.53 125.702 163.541L120.275 121.351Z" fill="#9F9DFF"/>
</g>
<circle cx="176.222" cy="160.205" r="4.76404" fill="url(#paint2_radial_265_829)"/>
<defs>
<filter id="filter0_f_265_829" x="38.2397" y="205.954" width="371.102" height="89.6453" filterUnits="userSpaceOnUse" color-interpolation-filters="sRGB">
<feFlood flood-opacity="0" result="BackgroundImageFix"/>
<feBlend mode="normal" in="SourceGraphic" in2="BackgroundImageFix" result="shape"/>
<feGaussianBlur stdDeviation="15" result="effect1_foregroundBlur_265_829"/>
</filter>
<filter id="filter1_di_265_829" x="0.000976562" y="0.709717" width="311.996" height="287.996" filterUnits="userSpaceOnUse" color-interpolation-filters="sRGB">
<feFlood flood-opacity="0" result="BackgroundImageFix"/>
<feColorMatrix in="SourceAlpha" type="matrix" values="0 0 0 0 0 0 0 0 0 0 0 0 0 0 0 0 0 0 127 0" result="hardAlpha"/>
<feOffset/>
<feGaussianBlur stdDeviation="18"/>
<feComposite in2="hardAlpha" operator="out"/>
<feColorMatrix type="matrix" values="0 0 0 0 0.491211 0 0 0 0 0.386306 0 0 0 0 1 0 0 0 0.35 0"/>
<feBlend mode="normal" in2="BackgroundImageFix" result="effect1_dropShadow_265_829"/>
<feBlend mode="normal" in="SourceGraphic" in2="effect1_dropShadow_265_829" result="shape"/>
<feColorMatrix in="SourceAlpha" type="matrix" values="0 0 0 0 0 0 0 0 0 0 0 0 0 0 0 0 0 0 127 0" result="hardAlpha"/>
<feOffset dx="10" dy="10"/>
<feGaussianBlur stdDeviation="6"/>
<feComposite in2="hardAlpha" operator="arithmetic" k2="-1" k3="1"/>
<feColorMatrix type="matrix" values="0 0 0 0 1 0 0 0 0 1 0 0 0 0 1 0 0 0 1 0"/>
<feBlend mode="normal" in2="shape" result="effect2_innerShadow_265_829"/>
</filter>
<filter id="filter2_i_265_829" x="122.923" y="113.725" width="101.471" height="121.081" filterUnits="userSpaceOnUse" color-interpolation-filters="sRGB">
<feFlood flood-opacity="0" result="BackgroundImageFix"/>
<feBlend mode="normal" in="SourceGraphic" in2="BackgroundImageFix" result="shape"/>
<feColorMatrix in="SourceAlpha" type="matrix" values="0 0 0 0 0 0 0 0 0 0 0 0 0 0 0 0 0 0 127 0" result="hardAlpha"/>
<feOffset dy="4"/>
<feGaussianBlur stdDeviation="10"/>
<feComposite in2="hardAlpha" operator="arithmetic" k2="-1" k3="1"/>
<feColorMatrix type="matrix" values="0 0 0 0 0.809993 0 0 0 0 0.806772 0 0 0 0 1 0 0 0 1 0"/>
<feBlend mode="normal" in2="shape" result="effect1_innerShadow_265_829"/>
</filter>
<filter id="filter3_i_265_829" x="120.191" y="110.075" width="113.1" height="62.1902" filterUnits="userSpaceOnUse" color-interpolation-filters="sRGB">
<feFlood flood-opacity="0" result="BackgroundImageFix"/>
<feBlend mode="normal" in="SourceGraphic" in2="BackgroundImageFix" result="shape"/>
<feColorMatrix in="SourceAlpha" type="matrix" values="0 0 0 0 0 0 0 0 0 0 0 0 0 0 0 0 0 0 127 0" result="hardAlpha"/>
<feOffset dx="4"/>
<feGaussianBlur stdDeviation="10"/>
<feComposite in2="hardAlpha" operator="arithmetic" k2="-1" k3="1"/>
<feColorMatrix type="matrix" values="0 0 0 0 1 0 0 0 0 1 0 0 0 0 1 0 0 0 1 0"/>
<feBlend mode="normal" in2="shape" result="effect1_innerShadow_265_829"/>
</filter>
<linearGradient id="paint0_linear_265_829" x1="103.191" y1="250.777" x2="379.341" y2="250.777" gradientUnits="userSpaceOnUse">
<stop stop-color="#B0ACB9"/>
<stop offset="1" stop-color="#B0ACB9" stop-opacity="0"/>
</linearGradient>
<radialGradient id="paint1_radial_265_829" cx="0" cy="0" r="1" gradientUnits="userSpaceOnUse" gradientTransform="translate(108.509 71.797) rotate(60.4848) scale(187.189 207.75)">
<stop offset="0.00480771" stop-color="#F2FFDB"/>
<stop offset="0.588525" stop-color="#BEB0FF"/>
<stop offset="1" stop-color="#7D63FF"/>
</radialGradient>
<radialGradient id="paint2_radial_265_829" cx="0" cy="0" r="1" gradientUnits="userSpaceOnUse" gradientTransform="translate(176.222 160.205) rotate(90) scale(4.76404)">
<stop stop-color="#C3B7FF"/>
<stop offset="1" stop-color="#7D63FF"/>
</radialGradient>
</defs>
</svg>
