<svg width="24" height="22" viewBox="0 0 24 22" fill="none" xmlns="http://www.w3.org/2000/svg">
<g filter="url(#filter0_di_279_561)">
<path d="M13.4068 4.00077C14.0072 2.97485 15.3317 2.63286 16.3648 3.2371C17.3328 3.80389 17.7017 5.00129 17.2495 5.99393L17.148 6.18924L15.8511 8.40242C15.7501 8.57481 15.8739 8.79184 16.0737 8.79266L18.7056 8.8035L18.9263 8.81522C20.0145 8.9304 20.861 9.85361 20.857 10.9715C20.8526 12.0898 19.9983 13.0067 18.9087 13.1131L18.688 13.1238L16.0954 13.113C15.8947 13.1122 15.7692 13.3299 15.8706 13.5031L17.148 15.6853L17.2495 15.8807C17.7017 16.8734 17.333 18.0708 16.3648 18.6375C15.3318 19.2417 14.0073 18.8995 13.4068 17.8738L12.0817 15.6096C11.9816 15.4386 11.7343 15.4386 11.6342 15.6097L10.3101 17.8728L10.189 18.0574C9.54497 18.9382 8.32061 19.2031 7.35207 18.6365C6.38366 18.0698 6.01406 16.8725 6.46633 15.8797L6.56789 15.6844L7.86316 13.4702C7.96402 13.2978 7.84017 13.0809 7.64042 13.0801L5.01125 13.0701L4.79054 13.0584C3.70189 12.9434 2.85551 12.0195 2.85988 10.9012C2.86483 9.70848 3.83608 8.74513 5.02883 8.74979L7.61881 8.75976C7.81945 8.76053 7.94485 8.54285 7.84353 8.36968L6.56789 6.18924L6.46633 5.99393C6.01414 5.00115 6.38367 3.80377 7.35207 3.2371C8.32056 2.67064 9.54499 2.93553 10.189 3.8162L10.3101 4.00077L11.6343 6.26322C11.7344 6.43422 11.9815 6.43426 12.0817 6.26329L13.4068 4.00077Z" fill="url(#paint0_radial_279_561)"/>
</g>
<defs>
<filter id="filter0_di_279_561" x="0.267863" y="0.346476" width="23.1811" height="21.1816" filterUnits="userSpaceOnUse" color-interpolation-filters="sRGB">
<feFlood flood-opacity="0" result="BackgroundImageFix"/>
<feColorMatrix in="SourceAlpha" type="matrix" values="0 0 0 0 0 0 0 0 0 0 0 0 0 0 0 0 0 0 127 0" result="hardAlpha"/>
<feOffset/>
<feGaussianBlur stdDeviation="1.296"/>
<feComposite in2="hardAlpha" operator="out"/>
<feColorMatrix type="matrix" values="0 0 0 0 0.491211 0 0 0 0 0.386306 0 0 0 0 1 0 0 0 0.35 0"/>
<feBlend mode="normal" in2="BackgroundImageFix" result="effect1_dropShadow_279_561"/>
<feBlend mode="normal" in="SourceGraphic" in2="effect1_dropShadow_279_561" result="shape"/>
<feColorMatrix in="SourceAlpha" type="matrix" values="0 0 0 0 0 0 0 0 0 0 0 0 0 0 0 0 0 0 127 0" result="hardAlpha"/>
<feOffset dx="0.1728" dy="0.3456"/>
<feGaussianBlur stdDeviation="0.432"/>
<feComposite in2="hardAlpha" operator="arithmetic" k2="-1" k3="1"/>
<feColorMatrix type="matrix" values="0 0 0 0 0.896503 0 0 0 0 0.884533 0 0 0 0 0.884533 0 0 0 1 0"/>
<feBlend mode="normal" in2="shape" result="effect2_innerShadow_279_561"/>
</filter>
<radialGradient id="paint0_radial_279_561" cx="0" cy="0" r="1" gradientUnits="userSpaceOnUse" gradientTransform="translate(9.03791 7.53322) rotate(58.4808) scale(11.8113 13.1834)">
<stop stop-color="#7D63FF"/>
<stop offset="0.653547" stop-color="#B3A8EB"/>
<stop offset="0.995192" stop-color="#6C9577"/>
</radialGradient>
</defs>
</svg>
