<svg width="21" height="17" viewBox="0 0 21 17" fill="none" xmlns="http://www.w3.org/2000/svg">
<path d="M0.43652 7.38623C0.0147537 7.80799 0.0147537 8.49181 0.43652 8.91358L7.3096 15.7867C7.73136 16.2084 8.41518 16.2084 8.83695 15.7867C9.25871 15.3649 9.25871 14.6811 8.83695 14.2593L2.72755 8.1499L8.83695 2.0405C9.25871 1.61873 9.25871 0.934915 8.83695 0.513149C8.41518 0.091383 7.73136 0.091383 7.3096 0.513149L0.43652 7.38623ZM19.2002 9.2299C19.7967 9.2299 20.2802 8.74637 20.2802 8.1499C20.2802 7.55343 19.7967 7.0699 19.2002 7.0699V9.2299ZM1.2002 8.1499V9.2299H19.2002V8.1499V7.0699H1.2002V8.1499Z" fill="#2C2A36"/>
</svg>
