<svg width="21" height="17" viewBox="0 0 21 17" fill="none" xmlns="http://www.w3.org/2000/svg">
<path d="M1.19922 7.07015C0.602751 7.07015 0.119219 7.55368 0.119219 8.15015C0.119219 8.74661 0.602751 9.23015 1.19922 9.23015V7.07015ZM19.9629 8.91382C20.3847 8.49206 20.3847 7.80824 19.9629 7.38647L13.0898 0.513393C12.668 0.0916267 11.9842 0.0916267 11.5625 0.513393C11.1407 0.935159 11.1407 1.61898 11.5625 2.04074L17.6719 8.15015L11.5625 14.2595C11.1407 14.6813 11.1407 15.3651 11.5625 15.7869C11.9842 16.2087 12.668 16.2087 13.0898 15.7869L19.9629 8.91382ZM1.19922 8.15015V9.23015H19.1992V8.15015V7.07015H1.19922V8.15015Z" fill="#2C2A36"/>
</svg>
