<svg width="16" height="18" viewBox="0 0 16 18" fill="none" xmlns="http://www.w3.org/2000/svg">
<path d="M8.85633 3.08123L12.6164 6.88495M1.19385 17.2314H15.1938M1.49567 13.3265L1.91602 10.3643C1.93863 10.1708 2.02696 9.99132 2.16583 9.85666L10.4064 1.49851C10.5123 1.38895 10.6444 1.309 10.7897 1.26642C10.9351 1.22384 11.0888 1.22007 11.236 1.25548C11.9963 1.46021 12.6876 1.87031 13.2362 2.44209C13.8036 2.99739 14.2115 3.69874 14.4163 4.47108C14.4478 4.62058 14.4424 4.77569 14.4004 4.92254C14.3585 5.06939 14.2813 5.2034 14.1758 5.31261L5.93611 13.6708C5.79405 13.8039 5.61691 13.8922 5.42625 13.925L2.4958 14.3505C2.35929 14.3693 2.22038 14.3556 2.08997 14.3106C1.95957 14.2656 1.84124 14.1905 1.7443 14.0912C1.64735 13.992 1.57444 13.8712 1.5313 13.7386C1.48816 13.6059 1.47596 13.4648 1.49567 13.3265Z" stroke="#555267" stroke-width="1.3" stroke-linecap="round" stroke-linejoin="round"/>
</svg>
