<svg width="25" height="29" viewBox="0 0 25 29" fill="none" xmlns="http://www.w3.org/2000/svg">
<path d="M3.50367 17.3428C3.50367 19.552 5.29453 21.3428 7.50367 21.3428H18.0513C20.2605 21.3428 22.0513 19.552 22.0513 17.3428V12.1101C22.0513 6.96574 17.8993 2.79517 12.7775 2.79517C7.65569 2.79517 3.50367 6.96574 3.50367 12.1101V17.3428ZM12.7775 0.145508C19.3619 0.145508 24.701 5.5018 24.701 12.1101V16.9925C24.701 20.8585 21.567 23.9925 17.701 23.9925H7.854C3.98801 23.9925 0.854004 20.8585 0.854004 16.9925V12.1101C0.854004 5.5018 6.19308 0.145508 12.7775 0.145508ZM10.4355 27.6593C9.41965 26.6435 10.63 25.3173 12.0667 25.3173H13.4883C14.925 25.3173 16.1353 26.6435 15.1195 27.6593C14.4983 28.2804 13.6559 28.6294 12.7775 28.6294C11.8991 28.6294 11.0566 28.2804 10.4355 27.6593Z" fill="white"/>
</svg>
