<svg width="19" height="19" viewBox="0 0 19 19" fill="none" xmlns="http://www.w3.org/2000/svg">
<path d="M17.5669 17.5L13.7065 13.6396M13.7065 13.6396C14.3668 12.9793 14.8906 12.1953 15.248 11.3326C15.6054 10.4698 15.7893 9.54507 15.7893 8.61121C15.7893 7.67735 15.6054 6.75264 15.248 5.88987C14.8906 5.0271 14.3668 4.24316 13.7065 3.58283C13.0462 2.92249 12.2622 2.39868 11.3995 2.04131C10.5367 1.68394 9.61197 1.5 8.67811 1.5C7.74425 1.5 6.81954 1.68394 5.95676 2.04131C5.09399 2.39868 4.31006 2.92249 3.64972 3.58283C2.31611 4.91644 1.56689 6.7252 1.56689 8.61121C1.56689 10.4972 2.31611 12.306 3.64972 13.6396C4.98333 14.9732 6.7921 15.7224 8.67811 15.7224C10.5641 15.7224 12.3729 14.9732 13.7065 13.6396Z" stroke="#555267" stroke-width="1.5" stroke-linecap="round" stroke-linejoin="round"/>
</svg>
