<svg width="26" height="28" viewBox="0 0 26 28" fill="none" xmlns="http://www.w3.org/2000/svg">
<path d="M1.2002 23.4224V3.97797C1.2002 3.24126 1.5031 2.53472 2.04226 2.01379C2.58143 1.49285 3.3127 1.2002 4.0752 1.2002H23.3377C23.5664 1.2002 23.7858 1.28799 23.9476 1.44427C24.1093 1.60055 24.2002 1.81251 24.2002 2.03353V20.2474M4.0752 20.6446H24.2002M4.0752 26.2002H24.2002" stroke="white" stroke-width="2.4" stroke-linecap="round"/>
<path d="M4.0752 26.2001C3.3127 26.2001 2.58143 25.9074 2.04226 25.3865C1.5031 24.8656 1.2002 24.159 1.2002 23.4223C1.2002 22.6856 1.5031 21.9791 2.04226 21.4581C2.58143 20.9372 3.3127 20.6445 4.0752 20.6445" stroke="white" stroke-width="2.4" stroke-linecap="round" stroke-linejoin="round"/>
<path d="M8.3877 6.75586H17.0127" stroke="white" stroke-width="2.4" stroke-linecap="round"/>
</svg>
