<svg width="19" height="19" viewBox="0 0 19 19" fill="none" xmlns="http://www.w3.org/2000/svg">
<path d="M18.1988 6.29595H1.60452C1.39822 6.29595 1.20037 6.214 1.05449 6.06812C0.908613 5.92224 0.82666 5.72439 0.82666 5.51809C0.82666 5.31179 0.908613 5.11394 1.05449 4.96806C1.20037 4.82219 1.39822 4.74023 1.60452 4.74023H18.1988C18.4051 4.74023 18.603 4.82219 18.7488 4.96806C18.8947 5.11394 18.9767 5.31179 18.9767 5.51809C18.9767 5.72439 18.8947 5.92224 18.7488 6.06812C18.603 6.214 18.4051 6.29595 18.1988 6.29595Z" fill="white"/>
<path d="M14.507 18.793H5.29718C4.9685 18.8155 4.63863 18.7725 4.32669 18.6665C4.01475 18.5605 3.72695 18.3937 3.47997 18.1757C3.233 17.9576 3.03176 17.6928 2.88793 17.3964C2.7441 17.1 2.66054 16.778 2.64209 16.449V5.56942C2.64209 5.36312 2.72404 5.16526 2.86992 5.01939C3.0158 4.87351 3.21365 4.79156 3.41995 4.79156C3.62625 4.79156 3.8241 4.87351 3.96998 5.01939C4.11585 5.16526 4.1978 5.36312 4.1978 5.56942V16.449C4.1978 16.8743 4.68526 17.2373 5.23495 17.2373H14.4448C15.0256 17.2373 15.4819 16.8743 15.4819 16.449V5.56942C15.4819 5.34661 15.5704 5.13293 15.728 4.97539C15.8855 4.81784 16.0992 4.72933 16.322 4.72933C16.5448 4.72933 16.7585 4.81784 16.916 4.97539C17.0736 5.13293 17.1621 5.34661 17.1621 5.56942V16.449C17.1436 16.778 17.0601 17.1 16.9162 17.3964C16.7724 17.6928 16.5712 17.9576 16.3242 18.1757C16.0772 18.3937 15.7894 18.5605 15.4775 18.6665C15.1656 18.7725 14.8357 18.8155 14.507 18.793ZM14.6315 5.31013C14.5289 5.31153 14.4272 5.29236 14.3321 5.25376C14.2371 5.21517 14.1508 5.15792 14.0783 5.08541C14.0058 5.0129 13.9486 4.92659 13.91 4.83159C13.8714 4.73659 13.8522 4.63481 13.8536 4.53227V2.98693C13.8536 2.5617 13.3558 2.1987 12.8165 2.1987H7.01883C6.4484 2.1987 5.98169 2.5617 5.98169 2.98693V4.53227C5.98169 4.73857 5.89974 4.93643 5.75386 5.0823C5.60798 5.22818 5.41013 5.31013 5.20383 5.31013C4.99753 5.31013 4.79968 5.22818 4.6538 5.0823C4.50793 4.93643 4.42598 4.73857 4.42598 4.53227V2.98693C4.46613 2.33489 4.75997 1.72448 5.24458 1.2864C5.72919 0.848307 6.36606 0.617356 7.01883 0.642988H12.7853C13.4434 0.608956 14.0882 0.836124 14.5796 1.27508C15.071 1.71403 15.3692 2.32926 15.4093 2.98693V4.53227C15.4107 4.63529 15.3916 4.73756 15.3531 4.83313C15.3146 4.92871 15.2576 5.01569 15.1852 5.08902C15.1128 5.16235 15.0266 5.22058 14.9315 5.26031C14.8365 5.30005 14.7345 5.32051 14.6315 5.3205V5.31013Z" fill="white"/>
<path d="M8.0552 14.9034C7.84974 14.9007 7.65344 14.8179 7.50814 14.6726C7.36284 14.5273 7.28003 14.331 7.27734 14.1255V9.42727C7.27734 9.22097 7.3593 9.02312 7.50517 8.87724C7.65105 8.73137 7.8489 8.64941 8.0552 8.64941C8.2615 8.64941 8.45935 8.73137 8.60523 8.87724C8.75111 9.02312 8.83306 9.22097 8.83306 9.42727V14.1152C8.83443 14.2182 8.81533 14.3204 8.77685 14.416C8.73838 14.5116 8.6813 14.5986 8.60893 14.6719C8.53656 14.7452 8.45035 14.8035 8.35529 14.8432C8.26023 14.8829 8.15823 14.9034 8.0552 14.9034ZM11.7474 14.9034C11.5411 14.9034 11.3433 14.8214 11.1974 14.6756C11.0515 14.5297 10.9696 14.3318 10.9696 14.1255V9.42727C10.9696 9.22097 11.0515 9.02312 11.1974 8.87724C11.3433 8.73137 11.5411 8.64941 11.7474 8.64941C11.9537 8.64941 12.1516 8.73137 12.2975 8.87724C12.4433 9.02312 12.5253 9.22097 12.5253 9.42727V14.1152C12.5253 14.3224 12.4437 14.5214 12.2981 14.6689C12.1525 14.8164 11.9547 14.9007 11.7474 14.9034Z" fill="white"/>
</svg>
