<svg width="28" height="27" viewBox="0 0 28 27" fill="none" xmlns="http://www.w3.org/2000/svg">
<path d="M14.1075 25.3887C16.77 25.3883 19.3568 24.5024 21.4607 22.8705C23.5645 21.2386 25.0658 18.9533 25.7283 16.3745C26.3908 13.7957 26.1768 11.0698 25.1201 8.62593C24.0633 6.18208 22.2238 4.15907 19.8911 2.87541C17.5584 1.59175 14.8651 1.12034 12.2351 1.53539C9.6051 1.95044 7.18782 3.22838 5.36383 5.16802C3.53984 7.10767 2.41272 9.59885 2.15993 12.2494C1.90715 14.8999 2.54304 17.5592 3.9675 19.8087L2.1075 25.3887L7.6875 23.5287C9.60693 24.7469 11.8341 25.3921 14.1075 25.3887Z" stroke="white" stroke-width="2.4" stroke-linecap="round" stroke-linejoin="round"/>
</svg>
