<svg width="35" height="42" viewBox="0 0 35 42" fill="none" xmlns="http://www.w3.org/2000/svg">
<path d="M16.992 2.7064C17.7855 3.06339 18.5076 3.55879 19.1238 4.16888L31.512 16.4316C32.1347 17.0478 32.6329 17.7606 32.9879 18.539M16.992 2.7064C16.0479 2.28232 15.0231 2.06311 13.9863 2.06348H8.90483C6.97798 2.06348 5.13006 2.82091 3.76757 4.16914C2.40509 5.51738 1.63965 7.34597 1.63965 9.25267V32.8743C1.63965 34.781 2.40509 36.6096 3.76757 37.9578C5.13006 39.306 6.97798 40.0635 8.90483 40.0635H26.3745C28.3013 40.0635 30.1492 39.306 31.5117 37.9578C32.8742 36.6096 33.6396 34.781 33.6396 32.8743V21.5154C33.6396 20.4781 33.4134 19.4654 32.9879 18.539M16.992 2.7064V14.4289C16.992 15.5184 17.4294 16.5633 18.208 17.3338C18.9865 18.1042 20.0425 18.537 21.1435 18.537L32.9879 18.539" fill="white"/>
<path d="M16.992 2.7064C17.7855 3.06339 18.5076 3.55879 19.1238 4.16888L31.512 16.4316C32.1347 17.0478 32.6329 17.7606 32.9879 18.539M16.992 2.7064C16.0479 2.28232 15.0231 2.06311 13.9863 2.06348H8.90483C6.97798 2.06348 5.13006 2.82091 3.76757 4.16914C2.40509 5.51738 1.63965 7.34598 1.63965 9.25267V32.8743C1.63965 34.781 2.40509 36.6096 3.76757 37.9578C5.13006 39.306 6.97798 40.0635 8.90483 40.0635H26.3745C28.3013 40.0635 30.1492 39.306 31.5117 37.9578C32.8742 36.6096 33.6396 34.781 33.6396 32.8743V21.5154C33.6396 20.4781 33.4134 19.4654 32.9879 18.539M16.992 2.7064V14.4289C16.992 15.5184 17.4294 16.5633 18.208 17.3338C18.9865 18.1042 20.0425 18.537 21.1435 18.537L32.9879 18.539" stroke="#856CFF" stroke-width="2.3" stroke-linecap="round" stroke-linejoin="round"/>
</svg>
