<svg width="15" height="17" viewBox="0 0 15 17" fill="none" xmlns="http://www.w3.org/2000/svg">
<path fill-rule="evenodd" clip-rule="evenodd" d="M3.2125 7.2894V5.70482C3.2125 4.32442 3.71031 3.00055 4.59642 2.02446C5.48253 1.04836 6.68435 0.5 7.9375 0.5C9.19065 0.5 10.3925 1.04836 11.2786 2.02446C12.1647 3.00055 12.6625 4.32442 12.6625 5.70482V7.2894C13.443 7.3534 13.9505 7.51533 14.3222 7.92477C14.9375 8.60178 14.9375 9.69287 14.9375 11.8735C14.9375 14.0541 14.9375 15.1452 14.3222 15.8222C13.7076 16.5 12.7171 16.5 10.7375 16.5H5.1375C3.1579 16.5 2.1674 16.5 1.5528 15.8222C0.9375 15.1452 0.9375 14.0541 0.9375 11.8735C0.9375 9.69287 0.9375 8.60178 1.5528 7.92477C1.9238 7.51533 2.432 7.3534 3.2125 7.2894ZM4.2625 5.70482C4.2625 4.63117 4.64969 3.6015 5.33888 2.84231C6.02808 2.08313 6.96283 1.65663 7.9375 1.65663C8.91217 1.65663 9.84692 2.08313 10.5361 2.84231C11.2253 3.6015 11.6125 4.63117 11.6125 5.70482V7.25007C11.3446 7.2475 11.053 7.24647 10.7375 7.24699H5.1375C4.82157 7.24647 4.5299 7.2475 4.2625 7.25007V5.70482Z" fill="#7D7993"/>
</svg>
