<svg width="19" height="19" viewBox="0 0 19 19" fill="none" xmlns="http://www.w3.org/2000/svg">
<path d="M3.62842 5.13672L6.90639 7.41764C8.81725 8.74687 9.58047 8.74687 11.4924 7.41764L14.7704 5.13672" stroke="white" stroke-width="1.4" stroke-linecap="round" stroke-linejoin="round"/>
<path d="M0.713977 10.6758C0.769225 13.7408 0.797273 15.2738 1.75859 16.4088C2.7199 17.5448 4.05774 17.5838 6.73429 17.6628C8.38322 17.7128 10.0169 17.7128 11.6658 17.6628C14.3423 17.5838 15.6802 17.5448 16.6415 16.4088C17.6028 15.2738 17.6309 13.7408 17.687 10.6758C17.704 9.68979 17.704 8.70979 17.687 7.72379C17.6309 4.65879 17.6028 3.12579 16.6415 1.99079C15.6802 0.854792 14.3423 0.815792 11.6658 0.736792C10.0222 0.687997 8.37786 0.687997 6.73429 0.736792C4.05774 0.815792 2.7199 0.854792 1.75859 1.99079C0.797273 3.12579 0.769225 4.65879 0.713127 7.72379C0.695234 8.70768 0.696084 9.6919 0.713977 10.6758Z" stroke="white" stroke-width="1.4" stroke-linecap="round" stroke-linejoin="round"/>
</svg>
