<svg width="60" height="60" viewBox="0 0 60 60" fill="none" xmlns="http://www.w3.org/2000/svg">
<circle cx="30" cy="30" r="30" fill="url(#paint0_radial_833_628)"/>
<g filter="url(#filter0_di_833_628)">
<path d="M32.5157 14.0731C34.2223 11.434 37.7167 10.5693 40.4688 12.157C43.3097 13.7963 44.2833 17.4294 42.6436 20.2713L40.874 23.3371C40.6004 23.8112 40.9411 24.404 41.4884 24.4062L45.0245 24.4207L45.3301 24.4305C48.4679 24.6021 50.953 27.2067 50.9405 30.3846C50.9279 33.5625 48.4222 36.1479 45.2832 36.2947L44.9776 36.3006L41.5475 36.287C40.9976 36.2848 40.6525 36.8797 40.9273 37.356L42.6436 40.3309C44.2833 43.1727 43.3096 46.8058 40.4688 48.4451C37.7167 50.0329 34.2223 49.1681 32.5157 46.5291L32.3555 46.2684L30.6166 43.2546C30.3423 42.7792 29.656 42.7792 29.3817 43.2547L27.6436 46.2684L27.4844 46.5291C25.7778 49.1682 22.2824 50.033 19.5303 48.4451C16.7786 46.857 15.7792 43.3986 17.21 40.6004L17.3565 40.3309L19.1246 37.2651C19.3981 36.791 19.0573 36.1983 18.5099 36.1962L14.9776 36.1824L14.6719 36.1727C11.5341 36.0012 9.04805 33.3966 9.06059 30.2186C9.07362 26.9381 11.744 24.2886 15.0245 24.3016L18.452 24.3145C19.0018 24.3166 19.3469 23.7218 19.0721 23.2455L17.3565 20.2713L17.21 20.0018C15.7792 17.2036 16.7786 13.7452 19.5303 12.157C22.2824 10.5691 25.7778 11.434 27.4844 14.0731L27.6436 14.3338L29.3818 17.3468C29.656 17.8222 30.3422 17.8223 30.6166 17.3469L32.3555 14.3338L32.5157 14.0731Z" fill="url(#paint1_radial_833_628)"/>
</g>
<g filter="url(#filter1_i_833_628)">
<path d="M24.4268 29.5801L24.9988 29.9106C28.2703 31.8006 32.3018 31.8006 35.5732 29.9106" stroke="#6664F8" stroke-width="1.188" stroke-linecap="round"/>
</g>
<g filter="url(#filter2_i_833_628)">
<path d="M29.199 25.6016L28.501 27.9296" stroke="url(#paint2_linear_833_628)" stroke-width="1.188" stroke-linecap="round"/>
</g>
<g filter="url(#filter3_i_833_628)">
<path d="M31.6667 25.6016L30.9688 27.9296" stroke="url(#paint3_linear_833_628)" stroke-width="1.188" stroke-linecap="round"/>
</g>
<defs>
<filter id="filter0_di_833_628" x="1.93255" y="4.23333" width="56.1359" height="52.1359" filterUnits="userSpaceOnUse" color-interpolation-filters="sRGB">
<feFlood flood-opacity="0" result="BackgroundImageFix"/>
<feColorMatrix in="SourceAlpha" type="matrix" values="0 0 0 0 0 0 0 0 0 0 0 0 0 0 0 0 0 0 127 0" result="hardAlpha"/>
<feOffset/>
<feGaussianBlur stdDeviation="3.564"/>
<feComposite in2="hardAlpha" operator="out"/>
<feColorMatrix type="matrix" values="0 0 0 0 0.491211 0 0 0 0 0.386306 0 0 0 0 1 0 0 0 0.35 0"/>
<feBlend mode="normal" in2="BackgroundImageFix" result="effect1_dropShadow_833_628"/>
<feBlend mode="normal" in="SourceGraphic" in2="effect1_dropShadow_833_628" result="shape"/>
<feColorMatrix in="SourceAlpha" type="matrix" values="0 0 0 0 0 0 0 0 0 0 0 0 0 0 0 0 0 0 127 0" result="hardAlpha"/>
<feOffset dx="0.792" dy="1.188"/>
<feGaussianBlur stdDeviation="1.188"/>
<feComposite in2="hardAlpha" operator="arithmetic" k2="-1" k3="1"/>
<feColorMatrix type="matrix" values="0 0 0 0 1 0 0 0 0 1 0 0 0 0 1 0 0 0 1 0"/>
<feBlend mode="normal" in2="shape" result="effect2_innerShadow_833_628"/>
</filter>
<filter id="filter1_i_833_628" x="23.8325" y="28.9863" width="12.335" height="3.88595" filterUnits="userSpaceOnUse" color-interpolation-filters="sRGB">
<feFlood flood-opacity="0" result="BackgroundImageFix"/>
<feBlend mode="normal" in="SourceGraphic" in2="BackgroundImageFix" result="shape"/>
<feColorMatrix in="SourceAlpha" type="matrix" values="0 0 0 0 0 0 0 0 0 0 0 0 0 0 0 0 0 0 127 0" result="hardAlpha"/>
<feOffset dy="0.9504"/>
<feGaussianBlur stdDeviation="0.4752"/>
<feComposite in2="hardAlpha" operator="arithmetic" k2="-1" k3="1"/>
<feColorMatrix type="matrix" values="0 0 0 0 0 0 0 0 0 0 0 0 0 0 0 0 0 0 0.15 0"/>
<feBlend mode="normal" in2="shape" result="effect1_innerShadow_833_628"/>
</filter>
<filter id="filter2_i_833_628" x="27.9067" y="25.0078" width="1.88623" height="4.46603" filterUnits="userSpaceOnUse" color-interpolation-filters="sRGB">
<feFlood flood-opacity="0" result="BackgroundImageFix"/>
<feBlend mode="normal" in="SourceGraphic" in2="BackgroundImageFix" result="shape"/>
<feColorMatrix in="SourceAlpha" type="matrix" values="0 0 0 0 0 0 0 0 0 0 0 0 0 0 0 0 0 0 127 0" result="hardAlpha"/>
<feOffset dy="0.9504"/>
<feGaussianBlur stdDeviation="0.4752"/>
<feComposite in2="hardAlpha" operator="arithmetic" k2="-1" k3="1"/>
<feColorMatrix type="matrix" values="0 0 0 0 0 0 0 0 0 0 0 0 0 0 0 0 0 0 0.15 0"/>
<feBlend mode="normal" in2="shape" result="effect1_innerShadow_833_628"/>
</filter>
<filter id="filter3_i_833_628" x="30.3745" y="25.0078" width="1.88623" height="4.46603" filterUnits="userSpaceOnUse" color-interpolation-filters="sRGB">
<feFlood flood-opacity="0" result="BackgroundImageFix"/>
<feBlend mode="normal" in="SourceGraphic" in2="BackgroundImageFix" result="shape"/>
<feColorMatrix in="SourceAlpha" type="matrix" values="0 0 0 0 0 0 0 0 0 0 0 0 0 0 0 0 0 0 127 0" result="hardAlpha"/>
<feOffset dy="0.9504"/>
<feGaussianBlur stdDeviation="0.4752"/>
<feComposite in2="hardAlpha" operator="arithmetic" k2="-1" k3="1"/>
<feColorMatrix type="matrix" values="0 0 0 0 0 0 0 0 0 0 0 0 0 0 0 0 0 0 0.15 0"/>
<feBlend mode="normal" in2="shape" result="effect1_innerShadow_833_628"/>
</filter>
<radialGradient id="paint0_radial_833_628" cx="0" cy="0" r="1" gradientUnits="userSpaceOnUse" gradientTransform="translate(23.356 21.849) rotate(61.0265) scale(43.6089)">
<stop stop-color="#C4FFA4"/>
<stop offset="1" stop-color="#856CFF"/>
</radialGradient>
<radialGradient id="paint1_radial_833_628" cx="0" cy="0" r="1" gradientTransform="matrix(14.3689 23.8412 -26.359 15.9763 23.4371 22.241)" gradientUnits="userSpaceOnUse">
<stop stop-color="#7D63FF"/>
<stop offset="0.653547" stop-color="#C2B6FF"/>
<stop offset="0.995192" stop-color="#F2FFDB"/>
</radialGradient>
<linearGradient id="paint2_linear_833_628" x1="28.85" y1="25.6016" x2="28.85" y2="27.9296" gradientUnits="userSpaceOnUse">
<stop stop-color="#7D63FF"/>
<stop offset="1" stop-color="#5552FF"/>
</linearGradient>
<linearGradient id="paint3_linear_833_628" x1="31.3177" y1="25.6016" x2="31.3177" y2="27.9296" gradientUnits="userSpaceOnUse">
<stop stop-color="#7D63FF"/>
<stop offset="1" stop-color="#5552FF"/>
</linearGradient>
</defs>
</svg>
