<svg width="28" height="28" viewBox="0 0 28 28" fill="none" xmlns="http://www.w3.org/2000/svg">
<path d="M13.6459 0.913574C13.9522 0.913574 14.246 1.03526 14.4626 1.25187C14.6792 1.46847 14.8009 1.76225 14.8009 2.06857C14.8009 2.3749 14.6792 2.66868 14.4626 2.88528C14.246 3.10189 13.9522 3.22357 13.6459 3.22357C10.6848 3.22357 7.84489 4.39988 5.75105 6.49373C3.65721 8.58757 2.4809 11.4274 2.4809 14.3886C2.4809 17.3497 3.65721 20.1896 5.75105 22.2834C7.84489 24.3773 10.6848 25.5536 13.6459 25.5536C13.9522 25.5536 14.246 25.6753 14.4626 25.8919C14.6792 26.1085 14.8009 26.4023 14.8009 26.7086C14.8009 27.0149 14.6792 27.3087 14.4626 27.5253C14.246 27.7419 13.9522 27.8636 13.6459 27.8636C10.0721 27.8636 6.64469 26.4439 4.11763 23.9168C1.59058 21.3898 0.170898 17.9624 0.170898 14.3886C0.170898 10.8148 1.59058 7.38736 4.11763 4.86031C6.64469 2.33326 10.0721 0.913574 13.6459 0.913574Z" fill="white"/>
<path d="M20.5299 10.5845C20.3259 10.3655 20.2148 10.0759 20.2201 9.77672C20.2254 9.47749 20.3466 9.192 20.5582 8.98038C20.7699 8.76877 21.0553 8.64755 21.3546 8.64227C21.6538 8.63699 21.9434 8.74806 22.1623 8.95208L26.7823 13.5721C26.9986 13.7886 27.1201 14.0822 27.1201 14.3883C27.1201 14.6944 26.9986 14.9879 26.7823 15.2045L22.1623 19.8245C22.0566 19.938 21.9291 20.029 21.7874 20.0921C21.6457 20.1552 21.4928 20.1892 21.3377 20.1919C21.1826 20.1946 21.0286 20.1661 20.8848 20.108C20.7409 20.0499 20.6103 19.9635 20.5006 19.8538C20.3909 19.7441 20.3045 19.6135 20.2464 19.4697C20.1883 19.3258 20.1598 19.1718 20.1625 19.0167C20.1652 18.8616 20.1992 18.7087 20.2623 18.567C20.3254 18.4253 20.4165 18.2978 20.5299 18.1921L23.1787 15.5433H10.5661C10.2598 15.5433 9.96603 15.4216 9.74943 15.205C9.53282 14.9884 9.41113 14.6946 9.41113 14.3883C9.41113 14.082 9.53282 13.7882 9.74943 13.5716C9.96603 13.355 10.2598 13.2333 10.5661 13.2333H23.1787L20.5299 10.5845Z" fill="white"/>
</svg>
